<svg xmlns="http://www.w3.org/2000/svg" viewBox="0 0 349.78 349.78"><defs><style>.mautic-a{fill:#ffffff;}.mautic-b{fill:#4e5e9e;}.mautic-c{fill:#fdb933;}</style></defs><rect class="mautic-a" width="349.78" height="349.78" /><path class="mautic-b" d="M0,0V349.78H349.78V0ZM174.89,322.34c-81.17,0-147.45-66-147.45-147.45S93.72,27.44,174.89,27.44a142.5,142.5,0,0,1,56.6,11.42A10.37,10.37,0,0,1,237,52a10.38,10.38,0,0,1-13.16,5.46,127.39,127.39,0,1,0,78.44,117.66,123.7,123.7,0,0,0-7.69-43.69,10,10,0,1,1,18.86-6.95,146,146,0,0,1,8.94,50.64C322.34,256.06,256.31,322.34,174.89,322.34Z"/><polygon class="mautic-c" points="239.43 159.75 216.59 183.58 229.25 236.95 258.05 236.95 239.43 159.75"/><polygon class="mautic-c" points="230 89.25 237.94 97.19 174.89 163.97 121.02 108.61 90 236.95 118.79 236.95 135.92 165.71 174.89 208.15 258.29 117.3 266.24 125.49 274.18 80.56 230 89.25"/></svg>
